<svg width="24" height="24" viewBox="0 0 24 24" fill="none" xmlns="http://www.w3.org/2000/svg">
<path fill-rule="evenodd" clip-rule="evenodd" d="M12.8183 9.22828H16.1883C15.8101 10.3638 15.4379 11.4802 15.0693 12.5864H12.8282V21.6H9.44765V12.6137H7.20001V9.23881H9.43997C9.43997 9.14916 9.43912 9.08115 9.43997 9.01313C9.45107 8.01709 9.45448 7.02048 9.47867 6.02472C9.48493 5.75778 9.53929 5.48913 9.59791 5.22732C9.78972 4.37214 10.3606 3.89717 11.195 3.75346C11.7178 3.66325 12.2534 3.62113 12.7841 3.61117C13.9091 3.59039 15.0349 3.60491 16.1752 3.60491V6.97637C15.8132 6.97637 15.4521 6.97238 15.0904 6.97751C14.5343 6.98547 13.9768 6.9795 13.4224 7.01792C13.0129 7.04638 12.8362 7.24758 12.8225 7.65994C12.8049 8.17475 12.8183 8.69013 12.8183 9.22828Z" fill="#333333"/>
</svg>
