<svg width="24" height="24" viewBox="0 0 24 24" fill="none" xmlns="http://www.w3.org/2000/svg">
<path fill-rule="evenodd" clip-rule="evenodd" d="M15.7807 19.5964H8.16617C6.0884 19.5964 4.39815 17.9014 4.39815 15.8179V8.18189C4.39815 6.09835 6.0884 4.4034 8.16617 4.4034H15.7807C17.8585 4.4034 19.5487 6.09835 19.5487 8.18189V15.8179C19.5487 17.9014 17.8585 19.5964 15.7807 19.5964ZM15.7807 2.40002H8.16617C4.98672 2.40002 2.40002 4.99391 2.40002 8.18189V15.8179C2.40002 19.0061 4.98672 21.6 8.16617 21.6H15.7807C18.9601 21.6 21.5468 19.0061 21.5468 15.8179V8.18189C21.5468 4.99391 18.9601 2.40002 15.7807 2.40002ZM11.9734 14.7982C10.4347 14.7982 9.18293 13.543 9.18293 12C9.18293 10.457 10.4347 9.20183 11.9734 9.20183C13.5121 9.20183 14.7638 10.457 14.7638 12C14.7638 13.543 13.5121 14.7982 11.9734 14.7982ZM11.9734 7.19815C9.33298 7.19815 7.1848 9.3523 7.1848 12C7.1848 14.6478 9.33298 16.8019 11.9734 16.8019C14.6141 16.8019 16.7622 14.6478 16.7622 12C16.7622 9.3523 14.6141 7.19815 11.9734 7.19815Z" fill="#333333"/>
<path fill-rule="evenodd" clip-rule="evenodd" d="M17.0457 5.85077C16.4896 5.85077 16.0386 6.30278 16.0386 6.86038C16.0386 7.41829 16.4896 7.87029 17.0457 7.87029C17.6017 7.87029 18.0528 7.41829 18.0528 6.86038C18.0528 6.30278 17.6017 5.85077 17.0457 5.85077Z" fill="#333333"/>
</svg>
