<?xml version="1.0" encoding="UTF-8"?>
<svg width="88px" height="88px" viewBox="0 0 88 88" version="1.1" xmlns="http://www.w3.org/2000/svg" xmlns:xlink="http://www.w3.org/1999/xlink">
    <!-- Generator: Sketch 55.2 (78181) - https://sketchapp.com -->
    <title>Logo</title>
    <desc>Created with Sketch.</desc>
    <g id="Logo" stroke="none" stroke-width="1" fill="none" fill-rule="evenodd">
        <g>
            <rect id="Rectangle" fill="#000000" x="0" y="0" width="88" height="88"></rect>
            <g id="Group-2" transform="translate(15.000000, 14.000000)" fill="#FFFFFF" fill-rule="nonzero">
                <path d="M8.93031065,10.6703214 C9.44233521,12.0605913 9.80376431,11.9041859 10.1953125,11.9389426 L10.1953125,12.234375 L5.8882824,12.234375 L5.8882824,11.9389426 C7.06292698,11.9389426 6.27983059,10.0794567 6.27983059,10.0794567 L5.82804422,8.8108354 L2.25893187,8.8108354 C2.25893187,8.8108354 1.32524003,12.0779696 3.70464826,11.9389426 L3.70464826,12.234375 L0,12.234375 L0,11.9389426 C0.361429099,11.9041859 0.722858198,12.0258345 2.01797914,8.51540305 L5.73768695,8.51540305 L3.82512463,3.11072887 L4.84917374,0 L5.10518602,0 C8.79477474,10.2184837 8.93031065,10.6703214 8.93031065,10.6703214 Z" id="Path"></path>
                <path d="M32.5424436,10.235862 C32.8470206,11.5566184 33.9282687,11.9041859 34.3242188,11.9389426 L34.3242188,12.234375 L32.9231648,12.234375 C30.21243,12.2169966 30.60838,12.2169966 29.5423607,8.44588956 C29.1616395,7.10775479 28.2935952,6.7775657 27.8671875,6.69067383 L27.8671875,6.36048473 C29.115953,6.32572798 30.0753704,6.01291726 30.0753704,3.31926935 C30.0753704,0.625621449 29.115953,0.330189098 27.8671875,0.295432351 L27.8671875,0 C30.6388377,0.0521351207 32.5576725,0.573486328 32.5576725,3.31926935 C32.5576725,5.43943093 31.4002801,6.22145774 29.5880472,6.46475497 C30.5779223,6.34310636 31.7962301,7.10775479 32.5424436,10.235862 Z" id="Path"></path>
                <path d="M26.150451,0 L26.150451,10.1315918 C26.150451,11.3133212 26.5989046,11.9389426 27.1875,11.9389426 L27.1875,12.234375 L23.109375,12.234375 L23.109375,11.9389426 C23.7119845,11.9389426 24.1183956,11.3133212 24.1183956,10.1315918 L24.1183956,1.8421076 C24.1183956,0.764648437 23.7259987,0.295432351 23.109375,0.295432351 L23.109375,0 L26.150451,0 Z" id="Path"></path>
                <path d="M45.1992188,0 L55.3945312,0 L55.3945312,3.49305309 L55.1311265,3.49305309 C55.0071714,0.382324219 51.706865,0.295432351 51.706865,0.295432351 L51.4124715,0.295432351 L51.4124715,10.1315918 C51.4124715,11.3133212 52.0787305,11.9389426 52.7294952,11.9389426 L52.7294952,12.234375 L47.8487604,12.234375 L47.8487604,11.9389426 C48.4995251,11.9389426 49.1657841,11.3133212 49.1657841,10.1315918 L49.1657841,0.295432351 L48.8713906,0.295432351 C48.8713906,0.295432351 45.5865786,0.382324219 45.4626235,3.49305309 L45.1992188,3.49305309 L45.1992188,0 Z" id="Path"></path>
                <path d="M2.37890625,23.4492188 L7.81640625,23.4492188 L7.81640625,23.7446511 C7.07414435,23.7446511 6.34914435,24.2138672 6.34914435,25.2913263 L6.34914435,33.5808105 C6.34914435,34.76254 7.09140625,35.3881614 7.81640625,35.3881614 L7.81640625,35.6835938 L2.37890625,35.6835938 L2.37890625,35.3881614 C3.12116815,35.3881614 3.84616815,34.76254 3.84616815,33.5808105 L3.84616815,25.2913263 C3.84616815,24.2138672 3.13843006,23.7446511 2.37890625,23.7446511 L2.37890625,23.4492188 Z" id="Path"></path>
                <path d="M21.4101562,23.4492188 L26.8476562,23.4492188 L26.8476562,23.7446511 C26.0554377,23.7446511 25.2992291,24.0227051 25.2992291,25.2913263 L25.2992291,33.5460538 C25.2992291,34.7277832 25.875388,35.3881614 26.6496016,35.3881614 L26.6496016,35.6835938 L21.4101562,35.6835938 L21.4101562,35.3881614 C22.1663649,35.3881614 22.6885089,34.7277832 22.6885089,33.5460538 L22.6885089,25.2913263 C22.6885089,24.2138672 22.1843698,23.7446511 21.4101562,23.7446511 L21.4101562,23.4492188 Z" id="Path"></path>
                <path d="M33.0157515,34.2585671 C33.8247723,35.3881614 34.8979631,35.3881614 35.34375,35.3881614 L35.34375,35.6835938 L32.7350709,35.6835938 C30.9849443,35.6835938 30.5886893,35.1796209 28.8550734,32.5381081 C27.897457,31.1130815 27.1875,30.1225142 27.1875,30.1225142 L29.4659666,27.2203258 C29.4659666,27.2203258 32.3057945,23.8141646 29.3669028,23.7446511 L29.3669028,23.4492188 L34.8154099,23.4492188 L34.8154099,23.7446511 C33.7091979,23.7446511 32.5534539,23.7794078 28.9871584,28.5932173 C32.8506452,34.0326483 33.0157515,34.2585671 33.0157515,34.2585671 Z" id="Path"></path>
                <path d="M54.7148438,31.6054688 L54.7148438,35.6835938 L50.6367188,35.6835938 L50.6367188,35.3468678 C51.5672976,35.2159189 54.0169096,34.636002 54.482199,31.6054688 L54.7148438,31.6054688 Z" id="Path"></path>
                <path d="M49.2773438,23.4492188 L49.2773438,35.6835938 L45.1992188,35.6835938 L45.1992188,35.3881614 C46.0429688,35.3881614 46.3643973,34.484486 46.3643973,33.3027566 L46.3643973,25.8474343 C46.3643973,24.7699751 46.0831473,23.7446511 45.1992188,23.7446511 L45.1992188,23.4492188 L49.2773438,23.4492188 Z" id="Path"></path>
                <path d="M54.4715872,26.5078125 C54.1997122,24.2541118 51.6240543,23.8194696 50.6367188,23.7389803 L50.6367188,23.4492188 L54.7148438,23.4492188 L54.7148438,26.5078125 L54.4715872,26.5078125 Z" id="Path"></path>
                <path d="M50.6367188,29.7159375 C51.4363511,29.6253125 52.8046109,29.2990625 53.0533854,27.8671875 L53.3554688,27.8671875 L53.3554688,31.9453125 L53.0533854,31.9453125 C52.8046109,30.5315625 51.4363511,30.1871875 50.6367188,30.0965625 L50.6367188,29.7159375 Z" id="Path"></path>
                <path d="M10.5351562,55.734375 L10.5351562,59.8125 L5.09765625,59.8125 L5.09765625,59.4742224 C6.37265625,59.3426699 9.69140625,58.7600806 10.2164062,55.734375 L10.5351562,55.734375 Z" id="Path"></path>
                <path d="M3.84227129,49.4202326 L3.84227129,59.8125 L0.137223975,59.8125 L0.137223975,59.5170676 C0.874802839,59.5170676 1.35508675,58.7524192 1.35508675,57.5706898 L1.35508675,49.4202326 C1.35508675,48.3601518 0.737578864,47.8735574 0,47.8735574 L0,47.578125 L5.4375,47.578125 L5.4375,47.8735574 C4.69992114,47.8735574 3.84227129,48.1689897 3.84227129,49.4202326 Z" id="Path"></path>
                <path d="M25.1965075,55.3945312 C25.1965075,55.3945312 25.1819747,59.5179687 27.1875,59.5179687 L27.1875,59.8125 L22.7695312,59.8125 L22.7695312,59.5179687 C24.9639828,59.5179687 24.94945,55.3945312 24.94945,55.3945312 L25.1965075,55.3945312 Z" id="Path"></path>
                <path d="M22.7695312,47.578125 L26.525699,47.578125 L32.9648438,56.5801225 L32.9648438,59.8125 L32.152285,59.8125 L24.5939556,49.1074219 C23.6127526,47.717152 23.168145,47.9083141 22.7695312,47.8735574 L22.7695312,47.578125 Z" id="Path"></path>
                <path d="M30.9257812,48.2136596 L30.9257812,47.9179688 L35.34375,47.9179688 L35.34375,48.2136596 C33.142056,48.196266 33.1712175,52.3359375 33.1712175,52.3359375 L32.9233447,52.3359375 C32.9233447,52.3359375 32.9379254,48.196266 30.9257812,48.2136596 Z" id="Path"></path>
                <path d="M56.0742188,55.734375 L56.0742188,59.8125 L51.9960938,59.8125 L51.9960938,59.4742224 C52.9523437,59.3426699 55.4414063,58.7600806 55.8351563,55.734375 L56.0742188,55.734375 Z" id="Path"></path>
                <path d="M50.7407088,49.4202326 L50.7407088,59.8125 L47.0356615,59.8125 L47.0356615,59.5170676 C47.7732403,59.5170676 48.2535243,58.7524192 48.2535243,57.5706898 L48.2535243,49.4202326 C48.2535243,48.3601518 47.6360164,47.8735574 46.8984375,47.8735574 L46.8984375,47.578125 L52.3359375,47.578125 L52.3359375,47.8735574 C51.5983586,47.8735574 50.7407088,48.1689897 50.7407088,49.4202326 Z" id="Path"></path>
            </g>
        </g>
    </g>
</svg>