<svg width="69" height="310" viewBox="0 0 69 310" xmlns="http://www.w3.org/2000/svg"><title>Group 80</title><g fill="none" fill-rule="evenodd"><path d="M68.487 401.004l-.24 9.222c-.498.607-.487 1.227-.035 1.857l.013 1.35c-.937 2.776-.742 5.612-.392 8.456-.3 13.15-.411 26.307-.953 39.446-.542 13.172.257 26.317.16 39.473-.043 5.757-.405 11.517-.772 17.263-.108 1.702.094 4.19-2.525 3.936-2.244-.22-1.943-2.39-2.022-4.091-.08-1.734-.107-3.474-.157-5.21.917-2.493.635-5.095.603-7.674.12-5.03.36-10.062-.265-15.077.427-3.917.423-7.837.07-11.76l-.003-1.35c.114-4.353.45-8.705.01-13.057l.87-41.789c.903-4.148.795-8.337.463-12.537.083-5.47.533-10.935.163-16.41.417-1.391.558-2.792.14-4.215l.11-1.866c1.01-6.925.593-13.918.545-20.857-.337-49.15-.836-98.3-1.395-147.45-.146-12.743-.702-25.482-1.045-38.224-.538-20.011-1.941-39.991-1.971-60.022-.001-.653-.038-1.31.009-1.96.124-1.7.394-3.594 2.43-3.422 2.053.172 1.127 2.176 1.22 3.422.776 10.533.859 21.1 1.288 31.65 1.582 38.963 3.37 77.924 3.084 116.936-.228 31.066 1.228 62.11.908 93.172-.114 11.004-.359 22.007-.501 33.01-.023 1.732.179 3.467.277 5.2l-.06 1.876-.027.702m-17.601 62.313c-.915 16.897-1.814 33.793-2.765 50.686-.11 1.936-.516 3.846-.784 5.769-2.678.684-3.487.098-3.493-3.22-.007-4.012.117-8.052.5-12.034 2.604-27.015 3.117-54.152 3.49-81.308.142-10.425.793-20.837 1.09-31.261.42-14.776-.054-29.549-.286-44.323-.276-17.498-.314-35-.524-52.498-.21-17.61-1.09-35.199-.969-52.817.091-13.37.152-26.74.226-40.111.002-.326.011-.652.02-.978.047-1.667.434-3.174 2.039-3.197 1.713-.025 1.884 1.595 1.885 3.226.004 8.261.168 16.527-.013 24.782-.479 21.86.49 43.684.79 65.524.445 32.714.77 65.433.751 98.15-.009 14.877-.98 29.754-1.482 44.633-.062 1.836.065 3.682.104 5.523l.012 2.592-.015 1.955c-.03 2.417-.059 4.835-.09 7.252-.804 3.844-.574 7.754-.486 11.655M32.581 278.823c-1.15 18.487-.928 37.013-1.45 55.518-.714 25.435-1.386 50.868-1.008 76.316.187 12.667.807 25.342.537 37.997-.414 19.475-1.43 38.936-2.176 58.403a44.54 44.54 0 0 0 .039 3.883c.095 1.928.167 4.033-2.29 4.085-2.227.046-2.452-1.93-2.377-3.761.275-6.698.469-13.404.908-20.09 2.015-30.605 1.521-61.237.87-91.863-.465-21.877.376-43.718.988-65.57.53-18.939.219-37.901 1.494-56.817.088-1.291.202-2.603.508-3.85.3-1.22 1.076-2.179 2.432-2.035 1.426.152 1.808 1.316 1.787 2.596-.026 1.73-.168 3.46-.262 5.188" fill="#54B49F"/><path d="M49.502 175.764c1.272-16.027.93-31.86-.43-47.685-.127-1.48-.82-3.85 1.075-4.047 1.439-.15 1.53 2.273 1.618 3.677.39 6.345.58 12.704.932 19.051.559 10.143-.668 20.244-.483 30.377a2.1 2.1 0 0 1-.013.324c-.195 1.409.204 3.629-1.556 3.563-1.52-.059-1.078-2.156-1.138-3.49-.029-.645-.005-1.294-.005-1.77M60.46 84.35c-.615-9.707-.962-19.412-2.514-29.06-.282-1.75.09-3.585.273-5.371.085-.816.216-1.895 1.528-1.894 1.27 0 1.339 1.111 1.655 1.878.205.494.433 1.054.346 1.546-1.052 6.052.318 12.046.787 18.036.52 6.621 1.595 13.21 1.237 19.867-.106 2.007-.361 4.009-.595 6.009-.083.707-.031 1.686-1.237 1.664-1.335-.026-1.458-1.034-1.466-1.89-.033-3.594-.014-7.19-.014-10.785" fill="#876FDB"/><path d="M47.746 37.165c0 9.732 1.275 19.37 1.908 29.057.194 2.967.163 5.952.19 8.93.006.766-.088 1.691-.971 1.849-1.082.191-1.447-.79-1.587-1.644a26.711 26.711 0 0 1-.33-3.95c-.17-11.049-.968-22.055-1.982-33.045-.2-2.18-.794-4.316-1.076-6.492-.231-1.784.249-3.73 2.057-3.84 2.01-.122 1.779 1.974 1.788 3.503.012 1.877.003 3.755.003 5.632" fill="#FF8261"/><path d="M33.014 245.002c-.574-7.886.471-15.75.684-23.622.042-1.57-.557-4.335 1.482-4.355 2.288-.022 1.621 2.767 1.407 4.208-1.551 10.41-.018 20.848-.519 31.258-.02.426-.005.868-.122 1.273-.28.976-.193 2.436-1.788 2.244-1.3-.157-1.122-1.428-1.133-2.358-.032-2.883-.011-5.765-.011-8.648m-.036-52.783c.406-5.056.781-10.115 1.24-15.166.104-1.163-.062-3.064 1.33-3.027 1.81.048 1.211 2.104 1.161 3.249-.275 6.193-.737 12.376-1.082 18.566-.12 2.137-.06 4.283-.138 6.423-.027.768-.082 1.747-1.053 1.761-.886.012-1.16-.864-1.28-1.665-.51-3.37-.26-6.753-.178-10.141" fill="#876FDB"/><path d="M2.849-6.394c0-3.123.007-6.245-.004-9.368-.005-1.009-.014-2.103 1.094-2.206.996-.093 1.517.822 1.582 1.849.426 6.779.466 13.564-.092 20.333-.055.647-.318 1.974-1.228 1.794-.698-.137-1.057-1.106-1.055-2.057.003-3.448.001-6.896.001-10.345H2.85" fill="#FF8261"/><path d="M-2.156 220.316c.037-4.815 1.334-9.526.955-14.356-.1-1.275.25-2.854 1.52-2.932 1.418-.087 1.549 1.662 1.522 2.767-.086 3.673-.381 7.338-.575 11.008-.16 3.005-.285 6.011-.434 9.018-.041.883.051 2.013-1.004 2.181-1.325.21-1.464-1.066-1.571-2.026-.21-1.877-.283-3.773-.413-5.66" fill="#876FDB"/><path d="M.853 139.716c0-4.066-.032-8.132.023-12.196.014-1.037.002-2.58 1.01-2.491.78.068.89 1.44.896 2.399.053 8.465.062 16.932.062 25.398 0 .898-.082 2.055-.759 2.185-.863.164-1.053-1.118-1.063-2.091-.05-4.4-.022-8.802-.022-13.203H.853" fill="#FF8261"/><path d="M.46 308.025c-1.138-1.269-1.608-2.613-1.613-4.057-.018-5.286.049-10.572.094-15.858.004-.448.006-.92.135-1.338.338-1.11.364-2.875 1.724-2.74 1.162.117 1.046 1.772 1.036 2.867-.047 5.737-.118 11.476-.252 17.212-.03 1.286-.18 2.63-1.123 3.914m17.393-128.769c0-3.71-.032-7.42.017-11.128.017-1.22-.148-3.054.942-3.102.96-.042.889 1.721.928 2.83.267 7.746-.05 15.484-.215 23.222-.018.866-.115 1.946-.812 1.947-.772.002-.689-1.195-.695-1.989-.033-3.925-.015-7.852-.015-11.78h-.15m17.854-30.881c0 3.183.022 6.369-.013 9.55-.011.916-.103 2.093-.781 2.1-.535.006-.703-1.014-.753-1.823-.423-6.811-.332-13.649-.238-20.48.014-1.003.378-1.839 1.028-1.677.62.155.859 1.126.87 2.08.04 3.416.016 6.834.016 10.25h-.129" fill="#876FDB"/><path d="M16.853 141.846c0-2.513-.028-5.026.014-7.537.017-.991.194-2.16.885-2.273.874-.144 1.094 1.213 1.092 2.245-.01 5.454-.102 10.907-.177 16.36-.01.708-.217 1.328-.675 1.38-.665.074-.965-.751-.979-1.661-.047-2.836-.018-5.676-.018-8.514h-.142m1.136-47.293c0-2.949-.02-5.897.009-8.844.011-1.238.075-2.666.872-2.684.706-.016.758 1.402.833 2.42.3 4.044.038 8.1-.023 12.15-.032 2.088-.102 4.173-.125 6.262-.015 1.332.183 3.07-.731 3.164-1.024.107-.939-1.84-.958-3.248-.041-3.072-.012-6.146-.012-9.22h.135z" fill="#FF8261"/><path d="M14.844 217.237c.203-3.073.36-6.151.642-9.214.077-.83.247-2.03 1.237-1.997 1.042.034 1.015 1.254 1.054 2.105.277 6.07-.38 12.102-.656 18.149-.032.725-.231 1.803-1.066 1.743-.801-.06-.925-1.098-.937-1.866-.049-2.969-.02-5.94-.02-8.91l-.254-.01m18-98.93c.092-2.766.165-5.535.287-8.297.04-.88.192-1.93.776-1.983.654-.059.693 1.118.762 1.937.464 5.551-.122 11.053-.292 16.573-.025.801-.317 1.522-.825 1.487-.582-.041-.619-1.008-.628-1.734-.035-2.657-.014-5.317-.014-7.976l-.066-.007" fill="#876FDB"/><path d="M-1.13 56.683c.069-2.317.14-5.684 1.103-8.939.218-.742.438-1.701 1.336-1.719 1.172-.023 1.293 1.136 1.373 1.959.538 5.626-.38 11.17-1.05 16.723-.084.685-.438 1.371-1.232 1.315-.885-.063-1.442-.87-1.485-1.596-.126-2.227-.046-4.466-.046-7.743M27.885 1.311c0-2.537-.016-5.074.007-7.612.011-1.246.044-2.671 2.406-2.674 2.264-.004 2.709 1.328 2.5 2.622C31.745.14 31.75 6.64 32.322 13.152c.067.76.072 1.775-1.29 1.866-1.598.107-1.847-.96-2.084-1.833-1.065-3.924-1.191-7.896-1.063-11.874" fill="#FF8261"/><path d="M13.854 297.437c.309-4.773.507-8.384.797-11.982.08-.984.139-2.414 1.164-2.43 1.2-.017.896 1.494.953 2.435.367 5.979-.714 11.86-.775 17.814-.008.852-.328 1.749-1.064 1.751-.746.002-1.041-.916-1.058-1.759-.048-2.329-.017-4.66-.017-5.83m-12.18-44.364c0 3.339.028 6.677-.02 10.015-.01.778.01 1.856-.933 1.934-.843.069-1.181-.772-1.273-1.645-.713-6.784-.924-13.576.086-20.344.123-.822.274-2.175 1.32-1.99.977.17.921 1.493.944 2.359.08 3.221.031 6.447.031 9.672l-.155-.001" fill="#876FDB"/><path d="M32.873 89.057c.102-2.091.186-4.185.314-6.27.045-.75.104-1.699.667-1.759.598-.064.623.874.702 1.634.554 5.29.16 10.587.037 15.881-.016.632-.126 1.452-.592 1.481-.462.03-.583-.776-.65-1.394-.346-3.158-.595-6.334-.478-9.573M3.52 96.573c0 2.842.046 5.686-.029 8.526-.023.847-.096 2.003-1.362 1.922-.906-.058-1.256-.913-1.351-1.72C-.01 98.631-.51 91.946.15 85.231c.096-.972.304-2.273 1.604-2.203 1.236.066 1.34 1.365 1.514 2.332.669 3.717.758 7.46.252 11.213M12.944-9.516c.153-1.799-.823-5.3 1.237-5.452 2.422-.18 1.458 3.387 1.546 5.341.174 3.842.058 7.705-.003 11.558-.013.879-.032 2.082-1.083 2.094-1.03.012-1.094-1.142-1.143-2.055-.207-3.73-.365-7.464-.554-11.486m3.923 73.699c.003-2.403-.034-4.808.022-7.205.02-.908.265-1.925.867-1.953.522-.023.72.968.788 1.705.499 5.34.257 10.712.115 16.072-.02.708-.35 1.348-.777 1.202-.642-.219-.947-1.347-.984-2.279-.098-2.502-.033-5.026-.03-7.542m17.969-7.807c0 1.99.022 3.98-.011 5.969-.01.669-.16 1.448-.897 1.635-.976.247-1.41-.568-1.669-1.291-.836-2.328-.802-4.795-1.051-7.213a72.48 72.48 0 0 1-.352-5.634c-.028-1.189-.152-2.784 1.532-2.817 1.556-.03 1.765 1.52 1.865 2.72.185 2.206.225 4.421.326 6.632l.257-.001M14.186 27.328c-.118-2.275-.275-4.55-.338-6.826-.033-1.1.118-2.372 1.465-2.473 1.1-.081 1.57 1.035 1.745 1.974.946 5.1.943 10.245.49 15.394-.077.868-.561 1.697-1.565 1.623-.968-.071-1.365-.898-1.416-1.795-.15-2.63-.25-5.265-.368-7.897h-.013m45.32-19.5c-.186-2.308-.29-4.625-.59-6.92-.178-1.355-.137-2.608 1.474-2.854 1.579-.242 1.7 1.1 1.955 2.199 1.021 4.407.21 8.792-.112 13.184-.061.825-.399 1.609-1.406 1.588-1.21-.027-1.453-.992-1.484-1.893-.06-1.763-.018-3.53-.018-5.296l.18-.008" fill="#FF8261"/><path d="M47.844 108.395c.12-2.219.194-4.441.38-6.656.072-.843.52-1.68 1.63-1.713 1.287-.037 2.024.853 1.989 1.811-.163 4.554-.46 9.103-.766 13.651-.046.682-.32 1.497-1.3 1.535-1.157.046-1.66-.839-1.702-1.625-.119-2.329-.042-4.666-.042-7l-.189-.003" fill="#876FDB"/><path d="M3.86 30.553c.092-2.427.121-4.861.296-7.273.08-1.087.48-2.313 1.414-2.253 1.119.07 1.325 1.43 1.265 2.702-.22 4.727-.478 9.451-.76 14.172-.057.948-.18 2.193-1.077 2.121-.785-.063-1.095-1.2-1.12-2.183-.062-2.425-.02-4.855-.018-7.286" fill="#FF8261"/><path d="M19.572 258.82c0 2.093.029 4.186-.015 6.278-.017.805-.142 1.752-.962 1.908-.86.163-1.222-.748-1.314-1.524-.541-4.509-.624-9.036.004-13.542.12-.862.4-2.01 1.39-1.909 1.006.103 1.055 1.373 1.101 2.19.123 2.192.042 4.4.042 6.6h-.246" fill="#876FDB"/><path d="M42.897-.104c.571-1.597-1.347-4.94 1.9-4.87 3.73.081 1.205 3.144 1.286 4.916.15 3.214.231 6.433.307 9.65.025.99.379 2.346-1.259 2.43-1.708.085-1.38-1.352-1.465-2.304-.289-3.207-.508-6.418-.769-9.822m14.441 32.528c-.16-2.019-.313-4.04-.481-6.059-.09-1.068.29-1.998 1.376-2.273 1.483-.375 2.19.905 2.277 1.82.505 5.347.45 10.705-.252 16.042-.079.601-.398 1.181-1.197 1.053-.729-.116-.982-.732-1.044-1.326-.322-3.077-.6-6.16-.894-9.239.073-.005.144-.012.215-.018M-.085 180.17c-.019-2.365.073-4.636.437-6.818.089-.53.426-1.108.718-1.287.369-.229.429.589.494 1.048.63 4.411.035 8.768-.221 13.135-.035.583-.338.9-.67.732-.37-.19-.562-.741-.645-1.411-.225-1.814-.22-3.645-.113-5.399M32.697 25.891c-.11 1.56-.174 3.127-.353 4.68-.085.726-.395 1.504-1.36 1.451-.753-.04-1.078-.692-1.161-1.319a263.542 263.542 0 0 1-.962-8.037c-.153-1.488.765-2.585 2.127-2.639 1.703-.067 1.865 1.437 1.856 2.738-.005 1.041-.125 2.082-.194 3.123l.047.003z" fill="#FF8261"/></g></svg>