<!-- Generated by IcoMoon.io -->
<svg version="1.1" xmlns="http://www.w3.org/2000/svg" width="23" height="23" fill="#d8d8d8" viewBox="0 0 32 32">
<title>chapter-arrow</title>
<path fill="#d8d8d8" d="M8.094 0.119c-0.606 0.281-0.881 0.987-0.625 1.619 0.069 0.169 2.037 2.169 7.137 7.244l7.050 7.019-7.050 7.012c-5.106 5.088-7.069 7.081-7.138 7.25-0.050 0.131-0.094 0.35-0.094 0.488 0 0.9 0.913 1.506 1.719 1.131 0.356-0.169 15.256-15 15.413-15.35 0.15-0.319 0.15-0.744 0-1.063-0.156-0.35-15.056-15.181-15.412-15.35-0.319-0.15-0.681-0.15-1 0z"></path>
</svg>
