<svg width="16" height="16" viewBox="0 0 18 16" fill="#979797" xmlns="http://www.w3.org/2000/svg">
<path d="M5.33492 15.7206C6.71413 15.7667 8.08859 15.536 9.37708 15.0419C10.6656 14.5478 11.8419 13.8004 12.8367 12.8439C13.8314 11.8875 14.6243 10.7413 15.1685 9.47315C15.7128 8.20502 15.9972 6.84067 16.0052 5.46071C16.6373 4.67855 17.1066 3.77793 17.3856 2.8118C17.4065 2.73547 17.4048 2.65474 17.3808 2.57934C17.3568 2.50394 17.3115 2.43708 17.2504 2.38682C17.1893 2.33656 17.115 2.30503 17.0364 2.29603C16.9578 2.28703 16.8782 2.30095 16.8073 2.33611C16.4767 2.49528 16.1044 2.5467 15.743 2.48311C15.3815 2.41953 15.0492 2.24415 14.7927 1.98168C14.4652 1.62312 14.0692 1.33394 13.6279 1.13125C13.1867 0.928572 12.7093 0.816518 12.2239 0.801732C11.7386 0.786945 11.2552 0.869728 10.8025 1.04517C10.3497 1.22062 9.93676 1.48516 9.58811 1.82312C9.11074 2.28543 8.76109 2.86337 8.57314 3.50077C8.38519 4.13818 8.36532 4.81336 8.51549 5.46071C5.39088 5.64726 3.24564 4.16424 1.52944 2.13091C1.47788 2.07253 1.41044 2.03042 1.33534 2.00973C1.26025 1.98904 1.18075 1.99066 1.10657 2.0144C1.03238 2.03814 0.966712 2.08297 0.917581 2.14341C0.86845 2.20385 0.837983 2.27729 0.8299 2.35477C0.502954 4.16836 0.738801 6.03858 1.50576 7.71422C2.27273 9.38987 3.53407 10.7907 5.1204 11.7286C4.05676 12.9484 2.56308 13.7103 0.951153 13.8552C0.864795 13.8695 0.785075 13.9105 0.723152 13.9723C0.661228 14.0342 0.6202 14.1139 0.605809 14.2002C0.591418 14.2866 0.604384 14.3753 0.642893 14.4539C0.681402 14.5325 0.743527 14.5971 0.820573 14.6386C2.22293 15.3395 3.76724 15.7096 5.33492 15.7206Z" fill="#979797"/>
</svg>
