<svg width="182" height="78" viewBox="0 0 182 78" xmlns="http://www.w3.org/2000/svg"><title>Path 6</title><defs><filter x="-14%" y="-6.2%" width="128%" height="112.3%" filterUnits="objectBoundingBox" id="a"><feOffset dy="2" in="SourceAlpha" result="shadowOffsetOuter1"/><feGaussianBlur stdDeviation="5" in="shadowOffsetOuter1" result="shadowBlurOuter1"/><feColorMatrix values="0 0 0 0 0 0 0 0 0 0 0 0 0 0 0 0 0 0 0.2 0" in="shadowBlurOuter1" result="shadowMatrixOuter1"/><feMerge><feMergeNode in="shadowMatrixOuter1"/><feMergeNode in="SourceGraphic"/></feMerge></filter></defs><path d="M198.012 64.222c-12.23 12.342-63.094 42.006-68.064 13.32-3.425-19.767 30.877-22.339 19.94-7.546-4.119 5.571-8.167 11.264-13.055 16.175-2.913 2.927-11.898 4.606-15.183 4.085-9.588-1.521-22.517-11.278-28.49-16.717-13.668-12.448-3.514-8.052-11.702-24.047-9.37-18.303-69.786-23.222-75.621.919a31.177 31.177 0 0 0-.827 9.005c1.138 20.5 46.408 31.741 58.462 17.74 3.294-3.826-3.223-9.286-6.627-9.491-6.7-.405-13.567-1.197-20.136.184-39.063 8.213-17.656 11.095-41.623 10.962-2.255-.012-4.568-.034-6.731-.67-3.887-1.141-7.845-2.406-11.244-4.61-3.25-2.108-6.038-4.977-8.344-8.089-.849-1.145-.511-2.805-.767-4.207" transform="translate(9 -25)" filter="url(#a)" stroke="#000" fill="none"/></svg>