<svg width="182" height="55" viewBox="0 0 182 55" xmlns="http://www.w3.org/2000/svg"><title>Path 2</title><defs><filter x="-14%" y="-6.2%" width="128%" height="112.3%" filterUnits="objectBoundingBox" id="a"><feOffset dy="2" in="SourceAlpha" result="shadowOffsetOuter1"/><feGaussianBlur stdDeviation="5" in="shadowOffsetOuter1" result="shadowBlurOuter1"/><feColorMatrix values="0 0 0 0 0 0 0 0 0 0 0 0 0 0 0 0 0 0 0.2 0" in="shadowBlurOuter1" result="shadowMatrixOuter1"/><feMerge><feMergeNode in="shadowMatrixOuter1"/><feMergeNode in="SourceGraphic"/></feMerge></filter></defs><path d="M-10 82.053c7.08-1.115 14.424-.418 21.242-3.345 6.496-2.788 11.21-13.245 17.996-13.497 4.018-.15-6.306 7.788-7.721 13.116-.79 2.97.358 6.743 1.8 9.173 1.19 2.007 3.385 2.345 5.221 2.669 3.274.578 6.702 1.16 9.898 0 6.731-2.444 12.852-7.533 19.443-10.654 4.527-2.145 9.129-4.2 13.858-5.12 8.044-1.567 16.185-2.162 24.303-2.31 1.5-.027 3.365.149 4.322 1.787 2.446 4.185 2.967 10.129 5.215 14.532.77 1.508 2.196 2.426 3.507 2.55 15.413 1.446 24.815-31.204 39.6-34.709 14.007-3.32 19.62 28.277 31.316 24.076" filter="url(#a)" transform="translate(9 -48)" stroke="#000" fill="none"/></svg>