<svg width="182" height="106" viewBox="0 0 182 106" xmlns="http://www.w3.org/2000/svg"><title>Path 4</title><defs><filter x="-14%" y="-6.2%" width="128%" height="112.3%" filterUnits="objectBoundingBox" id="a"><feOffset dy="2" in="SourceAlpha" result="shadowOffsetOuter1"/><feGaussianBlur stdDeviation="5" in="shadowOffsetOuter1" result="shadowBlurOuter1"/><feColorMatrix values="0 0 0 0 0 0 0 0 0 0 0 0 0 0 0 0 0 0 0.2 0" in="shadowBlurOuter1" result="shadowMatrixOuter1"/><feMerge><feMergeNode in="shadowMatrixOuter1"/><feMergeNode in="SourceGraphic"/></feMerge></filter></defs><path d="M-8.265 71.656c19.067-8.148 50.247-17.172 52.248-43.062.055-.72-1.65-1.521-1.979-.88l-2.422 2.029c-3.083 6.022-5.846 12.229-8.135 18.595-3.48 9.674-5.526 19.833-9.145 29.456-3.042 8.085-6.87 15.864-10.798 23.558-1.37 2.683-2.848 5.44-5.053 7.493-.631.588-2.226.39-2.556-.408-5.663-13.702 17.94-25.811 25.026-29.896 22.138-12.762 57.76-23.17 76.384-46.404a12.064 12.064 0 0 0 2.362-4.937c.236-1.098.234-2.55-.586-3.318-4.045-3.794-9.044 8.022-9.175 8.651-3.897 18.677-8.47 69.772-36.4 71.817-8.122.595.175-18.608 5.309-22.09 20.302-13.773 29.472-11.554 56.147-24.314 3.484-1.666 20.834-11.036 19.707-20.27-.208-1.705-3.391 1.275-4.418 2.651-1.551 2.078-2.746 4.617-2.936 7.203-.6 8.158.842 16.356.6 24.532-.075 2.55-.453 5.19-1.547 7.495-1.965 4.14-4.62 7.953-7.483 11.531-1.241 1.552-2.928 2.761-4.689 3.68-1.84.962-4.043 2.712-5.941 1.87-13.362-5.922 19.197-25.442 23.278-27.208 23.864-10.328 48.183-19.581 72.063-29.871 1.956-.843 3.57-2.325 5.354-3.488" filter="url(#a)" transform="translate(9 -15)" stroke="#000" fill="none"/></svg>