<svg width="182" height="49" viewBox="0 0 182 49" xmlns="http://www.w3.org/2000/svg"><title>Path 14</title><defs><filter x="-14%" y="-6.2%" width="128%" height="112.3%" filterUnits="objectBoundingBox" id="a"><feOffset dy="2" in="SourceAlpha" result="shadowOffsetOuter1"/><feGaussianBlur stdDeviation="5" in="shadowOffsetOuter1" result="shadowBlurOuter1"/><feColorMatrix values="0 0 0 0 0 0 0 0 0 0 0 0 0 0 0 0 0 0 0.2 0" in="shadowBlurOuter1" result="shadowMatrixOuter1"/><feMerge><feMergeNode in="shadowMatrixOuter1"/><feMergeNode in="SourceGraphic"/></feMerge></filter></defs><path d="M-13.163 67.99c4.1-4.837 25.998-30.532 33.424-27.118 10.854 4.99-8.167 27.53-2.477 26.994 40.608-3.829-11.427-1.819 41.035-15.763 3.252-.865 14.946 7.482 23.824 4.517 60.208-20.104 30.697-19.83 68.32-13.727 3.22.522 11.124-3.12 9.783-.147-2.979 6.6-22.444 10.717-16.232 14.44l1.176 2.036c7.65 4.584 29.309-6.047 31.61-14.076" filter="url(#a)" transform="translate(9 -31)" stroke="#000" fill="none"/></svg>