<svg width="182" height="66" viewBox="0 0 182 66" xmlns="http://www.w3.org/2000/svg"><title>Path 12</title><defs><filter x="-14%" y="-6.2%" width="128%" height="112.3%" filterUnits="objectBoundingBox" id="a"><feOffset dy="2" in="SourceAlpha" result="shadowOffsetOuter1"/><feGaussianBlur stdDeviation="5" in="shadowOffsetOuter1" result="shadowBlurOuter1"/><feColorMatrix values="0 0 0 0 0 0 0 0 0 0 0 0 0 0 0 0 0 0 0.2 0" in="shadowBlurOuter1" result="shadowMatrixOuter1"/><feMerge><feMergeNode in="shadowMatrixOuter1"/><feMergeNode in="SourceGraphic"/></feMerge></filter></defs><path d="M196.865 63.214c-18.617 11.496-36.486 26.879-59.373 19.082-20.21-6.884-15.013-36.544 2.58-42.132 11.606-3.687 11.16 11.794 6.065 17.954-7.093 8.576-12.01 9.958-25.15 12.406-24.707 4.604-64.939-4.942-90.121-2.447-7.66.76-17.051 1.21-19.14 9.277-1.306 5.038 9.151 6.565 12.435 6.006 9.927-1.687 11.396-8.582 11.396-17.86 0-3.49 0-8.465-8.031-12.372-5.534-2.693-54.417 3.907-63.702 17.219" filter="url(#a)" transform="translate(9 -31)" stroke="#000" fill="none"/></svg>